<svg width="13" height="12" viewBox="0 0 13 12" fill="none" xmlns="http://www.w3.org/2000/svg">
<path d="M4.91484 10.8709L0.271977 6.22802C-0.0906591 5.86541 -0.0906591 5.27745 0.271977 4.91481L4.91484 0.271955C5.27747 -0.0906518 5.8654 -0.0906518 6.22804 0.271955C6.59068 0.634563 6.59068 1.22252 6.22804 1.58516L3.17034 4.64286H12.0714C12.5843 4.64286 13 5.0586 13 5.57143C13 6.08426 12.5843 6.5 12.0714 6.5H3.17034L6.22804 9.5577C6.40934 9.739 6.5 9.97666 6.5 10.2143C6.5 10.4519 6.40934 10.6896 6.22804 10.8709C5.8654 11.2335 5.27747 11.2335 4.91484 10.8709Z" fill="#EC2E38"/>
</svg>
